<svg version="1.1" id="Layer_1" xmlns="http://www.w3.org/2000/svg" xmlns:xlink="http://www.w3.org/1999/xlink" x="0px" y="0px"
	 width="100%" viewBox="0 0 560 560" enable-background="new 0 0 560 560" xml:space="preserve">
<path fill="#000000" opacity="1.000000" stroke="none" 
	d="
M389.683990,133.293533 
	C394.929749,134.497025 397.462524,132.231934 398.656006,127.661491 
	C399.157074,125.742599 399.994232,123.894936 400.831177,122.085449 
	C401.510529,120.616730 402.770477,119.680099 404.444244,119.994377 
	C406.312256,120.345131 407.353333,121.696899 407.248016,123.580238 
	C407.165985,125.047218 406.901093,126.574387 406.360504,127.932739 
	C404.352966,132.977081 401.974792,137.766327 403.165741,143.634399 
	C403.816681,146.841522 401.618439,149.762222 398.895264,151.632904 
	C396.816742,153.060745 396.045532,154.784088 396.401947,157.132568 
	C399.115356,175.011948 398.063263,193.026642 398.357605,210.992874 
	C398.363068,211.326111 398.387817,211.659805 398.376801,211.992401 
	C398.148865,218.868973 400.178741,223.181366 407.730194,225.836090 
	C424.806061,231.839157 438.636078,242.651031 448.160736,258.401062 
	C454.371552,268.671265 451.173981,277.024628 439.705627,281.020599 
	C433.160309,283.301178 426.309784,283.554596 419.552673,284.209900 
	C403.159698,285.799683 386.729309,287.000275 370.322021,288.448303 
	C365.185760,288.901611 364.519562,289.919403 366.563293,294.804077 
	C375.315369,315.722382 382.653107,337.065735 387.615265,359.243744 
	C392.819153,382.502197 396.669708,405.873047 397.573364,429.758667 
	C397.861511,437.374756 397.812195,445.069885 398.852844,452.675873 
	C399.200317,455.215393 398.427002,457.621613 395.563660,457.963043 
	C392.475281,458.331329 391.806641,455.999237 391.636780,453.406525 
	C390.723267,439.462463 389.762177,425.521515 388.812622,411.579803 
	C387.313721,389.573273 382.242096,368.231506 377.044739,346.885559 
	C372.452301,328.024323 364.449646,310.405365 358.001923,292.219757 
	C357.137390,289.781342 355.802704,289.231812 353.582550,289.296692 
	C343.598755,289.588593 333.614929,289.070160 323.618530,289.951172 
	C316.336792,290.592926 308.967133,290.329987 301.637146,290.306610 
	C293.304382,290.280060 284.981506,290.184204 276.703827,291.426483 
	C274.289276,291.788879 271.676483,291.642487 271.108673,288.667938 
	C270.501221,285.485626 273.251648,284.913086 275.494904,284.348541 
	C280.200409,283.164307 285.021484,282.692413 289.856873,282.844116 
	C314.356445,283.612549 338.820679,282.027466 363.291656,281.478516 
	C379.549438,281.113739 395.759094,278.647766 411.993011,277.152161 
	C417.620361,276.633698 423.255859,276.203461 428.888031,275.737640 
	C429.385895,275.696442 429.897919,275.749878 430.384308,275.658203 
	C435.286438,274.734528 440.900513,274.386475 443.284912,269.350311 
	C445.464935,264.745697 441.414551,261.186066 439.000031,257.790802 
	C431.378235,247.072998 421.151764,239.197220 409.207001,234.142746 
	C391.117493,226.488129 372.648102,219.672409 353.033020,216.902725 
	C340.219299,215.093414 327.412323,216.183884 314.755493,218.376328 
	C292.960236,222.151718 271.077637,225.700272 250.522095,234.460556 
	C240.518082,238.724014 231.126053,244.039536 222.504761,250.714935 
	C219.950195,252.692886 218.687225,254.635254 219.092148,258.229004 
	C221.586517,280.366943 223.788193,302.538208 226.021927,324.704956 
	C226.794495,332.371918 226.300720,340.017181 224.935760,347.584839 
	C224.500809,349.996307 223.998291,353.019043 220.541763,352.518402 
	C217.081970,352.017242 217.418915,348.966644 217.730179,346.539398 
	C220.648926,323.780212 215.912796,301.457031 213.957642,278.980194 
	C213.386658,272.415985 212.468018,265.881989 211.650116,258.828674 
	C206.016144,261.662659 202.915268,266.079468 199.790833,270.247620 
	C186.461182,288.029968 174.058640,306.368896 168.308640,328.271240 
	C163.863937,345.201599 161.785202,362.553864 159.348022,379.835358 
	C155.923599,404.117279 154.976791,428.544312 155.305252,453.038208 
	C155.320862,454.202850 155.321747,455.377686 155.190781,456.532043 
	C154.961349,458.554047 153.981705,460.069580 151.780945,460.157013 
	C149.354706,460.253357 148.204437,458.715454 147.825882,456.497894 
	C147.714554,455.845703 147.717682,455.170074 147.709549,454.504700 
	C147.182419,411.407684 150.820602,368.620972 161.256271,326.825256 
	C168.371597,298.327698 184.445847,274.283844 205.467636,253.741882 
	C208.584106,250.696564 210.562546,248.009018 209.785400,243.095673 
	C207.474594,228.485962 205.789780,213.775589 203.979095,199.089905 
	C203.630264,196.260574 202.726151,194.707809 199.615341,194.085419 
	C195.219437,193.205963 192.195724,190.477280 191.699448,185.625519 
	C191.295242,181.673767 187.991577,179.440231 186.057877,176.397476 
	C184.631760,174.153397 182.852051,172.132721 181.444672,169.878418 
	C180.241135,167.950668 180.439194,165.979309 182.459076,164.628586 
	C184.409424,163.324341 185.995773,164.349380 187.227509,165.863831 
	C189.939682,169.198517 192.553665,172.613068 195.341156,176.165054 
	C198.437012,174.215256 201.178421,172.517609 204.722198,172.430466 
	C207.325836,172.366455 207.326218,169.633652 207.495911,167.766983 
	C207.796844,164.456818 207.618439,161.106186 207.789062,157.780090 
	C207.916382,155.298080 208.668472,152.876694 211.688049,152.957230 
	C214.688461,153.037231 215.408630,155.364410 215.261505,157.944290 
	C215.053192,161.597473 214.667633,165.241425 214.501678,168.895859 
	C214.381058,171.552094 213.749191,174.506836 214.646286,176.825027 
	C216.993851,182.891357 217.193665,188.127975 211.617630,192.518066 
	C210.804169,193.158493 210.794571,194.273666 210.925171,195.312759 
	C212.872223,210.804321 214.798935,226.298462 216.776062,241.786163 
	C216.875122,242.562134 217.389053,243.285141 217.639526,243.868973 
	C218.800400,244.364136 219.508362,243.814575 220.148621,243.335327 
	C240.236374,228.298813 263.363129,220.771301 287.598694,215.937897 
	C304.240906,212.618866 320.831421,209.116089 337.909119,208.661743 
	C353.495117,208.247086 368.262939,211.949509 382.889832,216.678131 
	C384.947174,217.343246 387.019440,217.967255 389.105286,218.535126 
	C389.542877,218.654251 390.070618,218.442200 390.650848,218.371246 
	C391.697113,215.754288 390.963165,213.081665 390.874878,210.484650 
	C390.320557,194.181137 391.588165,177.838974 389.717590,161.558182 
	C389.234344,157.352371 389.147797,153.489594 384.303558,151.413925 
	C381.018494,150.006363 379.129181,146.183823 380.171722,143.043991 
	C381.746124,138.302170 379.525543,135.157944 377.727875,131.449707 
	C376.428650,128.769699 372.563446,125.380051 376.975800,122.874771 
	C381.747620,120.165375 382.282623,125.575447 384.227081,128.071976 
	C385.735107,130.008133 385.585297,133.569016 389.683990,133.293533 
z"/>
<path fill="#000000" opacity="1.000000" stroke="none" 
	d="
M399.303040,246.610245 
	C400.463226,249.297928 399.417511,250.777069 397.288208,251.598053 
	C395.624939,252.239380 394.433868,251.347504 393.563049,249.987061 
	C392.651794,248.563538 392.673706,247.150284 393.928436,245.948471 
	C395.734772,244.218323 397.471313,244.591675 399.303040,246.610245 
z"/>
<path fill="#000000" opacity="1.000000" stroke="none" 
	d="
M329.357452,255.295868 
	C331.967590,254.444962 333.637604,255.056824 334.262665,257.468170 
	C334.618683,258.841522 334.295532,260.158997 333.009308,260.934845 
	C331.644226,261.758301 330.104431,261.942596 328.893463,260.739990 
	C327.179932,259.038269 327.437225,257.217651 329.357452,255.295868 
z"/>
</svg>