<svg version="1.1" id="Layer_1" xmlns="http://www.w3.org/2000/svg" xmlns:xlink="http://www.w3.org/1999/xlink" x="0px" y="0px"
	 width="100%" viewBox="0 0 864 864" enable-background="new 0 0 864 864" xml:space="preserve">
<path fill="#000000" opacity="1.000000" stroke="none" 
	d="
M644.378662,547.013916 
	C637.440735,566.479553 625.758545,582.758240 614.481995,599.270203 
	C614.294617,599.544617 614.166870,599.859924 613.977295,600.132507 
	C612.000916,602.974060 597.061401,608.398132 593.782104,607.470886 
	C589.850464,606.359131 586.010864,601.612854 585.912964,596.887024 
	C585.473694,575.685974 579.263123,556.301880 569.339050,537.622437 
	C562.715881,525.156128 555.685059,513.050537 547.624634,501.502655 
	C545.237183,498.082336 546.027771,494.351379 548.322083,491.774139 
	C558.117065,480.771210 565.969543,468.605042 572.057556,455.218597 
	C574.025146,450.892242 577.844604,447.615967 578.547119,442.461395 
	C579.367798,436.439301 578.357361,434.509216 572.462219,433.391632 
	C565.591309,432.089081 558.732727,430.721222 551.870605,429.372528 
	C549.235718,428.854706 546.304077,428.513916 545.844116,425.149811 
	C545.357483,421.590637 546.508179,418.656158 549.809326,416.666626 
	C552.556274,415.011108 555.401062,414.765808 558.466003,415.150452 
	C560.711792,415.432281 563.037781,416.250763 565.198914,414.806335 
	C564.116821,408.669495 561.711365,407.106659 555.452820,408.578857 
	C552.717224,409.222321 550.173401,410.521362 547.216431,410.399048 
	C543.954956,410.264130 541.383240,409.350342 539.965942,406.143463 
	C538.472168,402.763458 539.591492,399.983276 541.767700,397.415894 
	C544.871826,393.753876 549.294373,393.445801 553.590088,392.905182 
	C559.901245,392.110901 560.767395,390.893585 558.995239,384.815765 
	C555.704346,373.529388 553.546448,361.826294 545.933533,352.207062 
	C543.948669,349.699097 546.058960,342.278748 548.539429,340.839783 
	C551.291504,339.243256 559.462158,341.828308 561.354431,345.037567 
	C568.283447,356.789001 573.522583,369.227386 576.746277,382.523590 
	C578.584656,390.106079 578.745300,390.148102 586.723572,390.780548 
	C591.110535,391.128357 595.346558,391.611938 598.733948,394.855713 
	C601.271118,397.285370 604.283691,399.462189 602.616333,403.702454 
	C600.912720,408.034882 596.839844,408.236084 593.150024,408.992401 
	C591.555908,409.319153 589.935303,408.078369 587.175720,409.257568 
	C594.691345,412.922699 593.234741,422.859070 601.768372,425.942474 
	C606.433533,427.628082 605.048950,437.987305 600.184448,440.043854 
	C597.876831,441.019409 597.354187,442.419006 597.112244,444.551788 
	C595.821533,455.928223 591.842285,466.593262 583.851196,474.535583 
	C578.028320,480.322906 574.648499,487.949646 568.106689,493.003540 
	C565.287720,495.181335 566.527527,497.842743 568.539856,499.925873 
	C573.462769,505.021881 577.463928,511.139008 579.830322,517.395813 
	C582.957092,525.663147 589.533447,531.706726 592.267273,539.969421 
	C592.507141,540.694275 593.225952,541.260620 593.733643,541.915222 
	C596.156738,541.274170 596.255066,539.267578 596.647461,537.584351 
	C598.082886,531.425964 599.821533,525.301453 600.703430,519.059265 
	C602.119202,509.037231 608.832214,503.511963 616.623169,498.620514 
	C624.264954,493.822693 639.434509,498.977600 643.721130,509.073364 
	C649.169189,521.904541 646.658813,534.076538 644.378662,547.013916 
M618.838318,554.432068 
	C620.301147,550.113708 623.847534,547.110779 625.886902,543.098145 
	C629.692383,535.610718 628.137146,527.846558 627.632385,520.164917 
	C627.341858,515.743164 625.024841,515.123657 621.328552,517.796997 
	C618.449829,519.878967 616.948303,522.744812 616.149292,526.032227 
	C615.092407,530.380554 613.863403,534.727112 613.312500,539.149658 
	C612.279907,547.439636 608.577698,554.722656 604.655396,561.756287 
	C601.229736,567.899475 600.715881,568.771240 605.750183,574.211304 
	C610.135071,567.829529 615.720764,562.446838 618.838318,554.432068 
z"/>
<path fill="#000000" opacity="1.000000" stroke="none" 
	d="
M278.207062,428.128632 
	C283.826111,426.300415 288.355347,423.097290 293.328644,420.812012 
	C296.023651,419.573639 296.361877,417.131592 296.814819,414.625244 
	C299.503632,399.746124 301.094604,384.648529 305.868011,370.184723 
	C308.651459,361.750641 312.903168,354.030945 317.066254,346.260010 
	C318.396667,343.776550 320.734863,342.350281 323.253967,341.451294 
	C329.528168,339.212250 334.005188,342.927887 332.909454,349.338104 
	C332.342865,352.652557 331.004700,355.513611 329.008331,358.347809 
	C323.638214,365.971771 321.491974,374.929077 319.737732,383.924622 
	C318.209564,391.760773 316.987854,399.656219 315.568329,407.514160 
	C314.453979,413.682861 315.111176,414.592590 321.477203,413.706848 
	C325.475311,413.150543 329.335938,412.902130 333.336975,413.675171 
	C339.142029,414.796753 341.399109,416.724091 341.508575,421.317841 
	C341.632599,426.521576 338.791199,430.225342 333.534088,431.156128 
	C328.127960,432.113373 322.663635,432.742310 317.224670,433.513977 
	C314.150482,433.950195 311.631897,434.916840 312.191284,439.083679 
	C316.713074,439.564026 321.241943,437.698334 325.850769,438.821167 
	C328.525330,439.472839 331.495453,439.738922 331.972504,442.935699 
	C332.475128,446.303772 333.152832,450.021179 329.945099,452.698517 
	C327.891571,454.412506 325.666809,455.849274 322.943909,456.368896 
	C320.328522,456.868042 317.731506,457.471283 315.140076,458.086365 
	C306.167664,460.215820 305.432983,462.016235 310.532379,469.676331 
	C311.536774,471.185089 312.611725,472.968109 314.111237,473.772400 
	C322.152557,478.085480 328.670959,484.817963 337.451263,488.003571 
	C342.418976,489.805908 346.216492,493.355072 348.345917,498.406067 
	C348.665466,499.164093 348.976349,500.107239 349.590515,500.532135 
	C357.384338,505.924011 354.367188,512.943176 351.210602,518.671936 
	C347.557251,525.302246 345.766205,532.235168 344.512024,539.409973 
	C341.762665,555.138367 337.889252,570.676147 336.564056,586.653931 
	C336.175568,591.337952 335.722839,595.937561 337.291962,600.483032 
	C339.123596,605.789062 338.094543,611.106506 336.833954,616.251221 
	C335.428314,621.988098 328.847351,623.318909 323.924866,619.186096 
	C320.327087,616.165405 319.780396,611.942871 318.765991,607.657776 
	C314.755127,590.714050 319.817352,574.665588 323.052307,558.423523 
	C324.937073,548.960388 326.759979,539.477295 328.993896,530.094421 
	C330.180878,525.108826 332.057465,520.269714 333.870178,515.457764 
	C334.884583,512.765076 334.213440,511.135559 331.874481,509.632019 
	C324.780670,505.072144 317.400360,500.872162 310.457153,496.218384 
	C301.916504,490.493988 294.001862,483.366455 289.186188,473.498077 
	C286.378906,474.516815 285.202301,476.901672 283.398895,478.481323 
	C280.508698,481.012939 277.536346,481.462067 274.243256,479.593536 
	C271.202362,477.868073 270.615631,475.107208 271.044220,471.858032 
	C271.567474,467.891205 273.014099,464.667206 276.446655,462.199860 
	C281.988342,458.216522 287.519775,454.091156 288.224731,446.375977 
	C288.358704,444.910004 288.943420,443.507721 288.252777,441.842926 
	C285.346588,441.710175 283.206329,443.382904 280.899170,444.548584 
	C278.525482,445.747864 276.285126,447.416229 273.774536,448.091400 
	C269.982178,449.111237 265.496674,449.188721 263.540924,445.318573 
	C261.757294,441.788971 263.198303,437.818451 266.199554,434.891724 
	C269.498169,431.674957 273.682648,429.975403 278.207062,428.128632 
z"/>
<path fill="#000000" opacity="1.000000" stroke="none" 
	d="
M554.208374,329.776672 
	C544.744995,330.401489 541.966187,327.859375 541.785706,319.074371 
	C541.557068,307.948761 542.175110,296.794434 539.834717,285.760773 
	C538.209106,278.097076 535.862305,276.124054 528.303101,274.836426 
	C515.525208,272.659943 505.266602,278.102539 495.248810,284.668060 
	C489.561890,288.395142 484.601166,287.334656 480.830017,280.808197 
	C477.187653,287.129150 472.722321,285.247589 467.297394,283.256561 
	C456.167603,279.171661 444.539886,279.599396 432.999451,281.986786 
	C427.982727,283.024597 422.815887,281.841583 417.757507,283.891571 
	C409.996796,287.036682 402.542755,290.546509 395.757477,295.501556 
	C391.139893,298.873627 386.982208,298.618561 382.644470,295.067505 
	C381.881897,294.443207 381.335419,293.375916 380.222900,293.525391 
	C369.158234,295.012268 359.003571,290.137756 348.311249,288.972412 
	C340.366119,288.106445 336.443207,290.282898 334.036194,297.913483 
	C331.081604,307.280090 330.480286,316.667725 333.220856,326.243256 
	C334.853668,331.948395 332.741058,336.477051 328.367310,337.780945 
	C323.241028,339.309174 316.478790,336.039490 314.840057,331.159241 
	C313.175781,326.203064 312.485291,321.044434 313.080139,315.889160 
	C314.436371,304.135620 316.281616,292.522217 322.827881,282.187134 
	C327.309937,275.110870 336.069489,270.884949 344.183685,272.489075 
	C354.795105,274.586945 365.447815,276.466766 375.897339,279.348450 
	C378.687805,280.117981 381.290283,280.927979 383.044586,283.057404 
	C391.611633,279.878296 398.962097,274.929565 406.861420,271.178650 
	C416.577148,266.565186 427.096313,264.508331 437.966095,263.142517 
	C447.843414,261.901398 457.030243,264.185944 466.526672,264.771851 
	C473.208557,265.184113 478.739929,267.762787 482.626495,274.129028 
	C490.516541,266.624664 500.783386,263.909515 510.148682,259.528931 
	C521.580322,254.181885 533.615906,255.535690 545.095093,259.435486 
	C549.861755,261.054810 551.606567,266.634521 553.798950,271.166779 
	C559.261658,282.459778 559.556091,294.601318 560.029297,306.732666 
	C560.165588,310.227325 559.897827,313.762512 560.327759,317.215271 
	C561.007324,322.673584 558.601135,326.465393 554.208374,329.776672 
z"/>
<path fill="#000000" opacity="1.000000" stroke="none" 
	d="
M461.107605,538.371399 
	C456.585327,539.951538 453.554443,536.956604 449.938568,535.440125 
	C447.526367,538.600220 444.987335,541.280884 440.857880,541.958801 
	C435.655029,542.812866 431.322540,538.794006 433.441803,534.079956 
	C437.179016,525.767151 437.226288,516.918945 438.013489,508.236420 
	C438.385864,504.128906 437.668427,499.794708 437.578369,495.542175 
	C437.495972,491.649750 434.048828,490.917694 430.439575,491.706848 
	C422.945312,493.345459 417.953613,498.327881 413.696198,504.204742 
	C412.302399,506.128693 410.647949,507.687164 408.948303,509.282074 
	C406.170563,511.888641 403.062592,512.838867 399.983521,510.354675 
	C397.000946,507.948395 395.556641,504.820374 396.895721,500.641022 
	C398.730286,494.915283 402.851562,490.715393 407.107056,487.346893 
	C420.358887,476.857147 428.123718,471.821106 445.267365,478.071533 
	C447.917694,479.037872 450.319519,479.641663 452.777008,477.742126 
	C455.526947,475.616547 458.514435,475.777832 461.787689,476.511200 
	C472.694092,478.954742 483.489502,481.317749 492.447327,488.866333 
	C496.003754,491.863281 497.029053,495.321289 496.811951,499.341949 
	C496.669128,501.987488 495.415344,504.774292 492.614929,505.668884 
	C489.196106,506.760986 485.513184,505.759674 483.474487,503.115997 
	C478.264801,496.360291 470.413605,494.806976 463.249634,491.947479 
	C458.750397,490.151581 455.843903,492.052673 453.965057,496.667084 
	C451.604736,502.463837 449.393433,508.304108 453.491699,514.074036 
	C456.062378,517.693237 459.259216,520.871460 462.212799,524.214172 
	C467.124115,529.772705 466.964111,532.926086 461.107605,538.371399 
z"/>
<path fill="#000000" opacity="1.000000" stroke="none" 
	d="
M672.546997,370.631561 
	C666.921692,373.893188 661.486938,376.547668 659.440369,383.326233 
	C658.553467,386.263824 655.110474,388.071625 651.691589,387.746399 
	C648.083313,387.403168 644.345947,386.917877 642.652344,382.721222 
	C641.158264,379.019348 639.390991,375.427216 637.725952,371.795013 
	C635.962524,367.947998 634.058594,364.680237 629.114075,363.743256 
	C624.752075,362.916626 622.210632,357.409393 622.920654,352.609222 
	C623.788940,346.738800 625.649719,344.715210 631.775574,344.779388 
	C637.043457,344.834564 639.833191,342.797394 640.867676,337.694977 
	C641.499634,334.578186 643.056519,331.732300 645.023254,329.231476 
	C649.273499,323.826996 655.960754,324.345367 659.371887,330.262360 
	C660.452087,332.136078 661.698059,333.958832 662.466492,335.959229 
	C664.669739,341.694366 668.669495,345.206085 674.607361,346.698639 
	C679.670776,347.971405 682.692261,351.257874 683.119995,356.502960 
	C683.525024,361.468628 681.320984,365.143188 676.947998,367.579163 
	C675.500977,368.385193 674.206421,369.464935 672.546997,370.631561 
M650.346619,356.535248 
	C651.011841,358.296722 651.685303,360.319916 654.139709,359.023468 
	C655.892456,358.097687 655.722656,356.508423 654.255676,355.390106 
	C652.921326,354.372925 651.184875,352.567291 650.346619,356.535248 
z"/>
<path fill="#000000" opacity="1.000000" stroke="none" 
	d="
M252.237015,360.836914 
	C254.143982,361.869171 255.796326,362.645874 257.456482,363.405518 
	C263.437164,366.141968 264.362152,369.760529 260.540924,375.247772 
	C258.585754,378.055359 256.111389,380.220917 252.963074,381.542175 
	C247.120422,383.994202 243.222519,388.123962 241.078491,394.156433 
	C239.811401,397.721588 236.747177,398.891663 233.032898,398.661591 
	C228.540176,398.383301 223.772507,397.950623 222.993576,392.521637 
	C222.028641,385.796295 219.461777,381.398651 212.557648,378.998596 
	C208.936752,377.739899 205.504150,373.783020 206.158478,369.175568 
	C206.849457,364.309845 208.091690,359.099609 214.339233,357.998016 
	C219.962051,357.006622 223.346146,353.476807 225.696701,348.510345 
	C226.901642,345.964508 228.765198,343.730164 229.967667,341.183441 
	C231.749634,337.409332 234.468521,336.375519 238.478729,336.948914 
	C242.586258,337.536224 244.553131,339.768127 245.476639,343.591400 
	C246.908661,349.519989 247.317017,355.874542 252.237015,360.836914 
z"/>
<path fill="#000000" opacity="1.000000" stroke="none" 
	d="
M653.307129,424.311157 
	C654.490723,421.884277 655.475464,419.773163 656.534607,417.700073 
	C657.967834,414.894745 659.866882,412.707275 663.403870,412.844513 
	C666.966919,412.982727 670.350769,413.975891 671.343811,417.690796 
	C673.890930,427.218384 680.958252,431.687897 689.288574,435.362244 
	C696.606445,438.590057 697.426514,447.335205 691.261597,452.617615 
	C690.008850,453.691101 688.585205,454.616119 687.121948,455.383850 
	C681.707764,458.224487 677.148987,461.960541 674.004089,467.293365 
	C672.387634,470.034515 669.708679,471.421204 666.878479,472.476929 
	C662.295898,474.186249 658.281006,472.753235 655.817322,468.519928 
	C654.146912,465.649689 652.560364,462.721436 651.108643,459.735382 
	C649.116211,455.637085 646.454590,452.230896 642.831543,449.347137 
	C638.600769,445.979645 638.624939,439.088043 643.211731,436.617950 
	C648.371521,433.839325 650.703613,429.345245 653.307129,424.311157 
M668.413940,445.162018 
	C667.728088,442.502167 665.911377,441.232239 661.988342,440.293182 
	C664.540283,442.925232 663.977722,446.780060 668.413940,445.162018 
z"/>
<path fill="#000000" opacity="1.000000" stroke="none" 
	d="
M185.964722,452.028809 
	C179.160797,446.587891 178.958969,440.313782 186.427170,434.439178 
	C191.434357,430.500458 194.076614,425.332520 196.592300,420.146545 
	C199.032837,415.115509 203.091553,415.148346 207.013580,415.435577 
	C211.014969,415.728638 213.667831,418.996521 213.902710,422.897522 
	C214.151443,427.028870 216.030060,429.061859 219.490082,430.815216 
	C223.564301,432.879822 226.775421,436.237854 231.052719,438.317108 
	C236.371109,440.902557 235.521637,450.539795 229.937454,453.138031 
	C224.055466,455.874847 220.068924,460.223053 216.673004,465.504242 
	C211.031616,474.277496 203.019012,474.457245 196.723785,466.099213 
	C193.237808,461.470947 189.764374,456.833282 185.964722,452.028809 
z"/>
<path fill="#000000" opacity="1.000000" stroke="none" 
	d="
M355.177490,403.592285 
	C352.090637,393.499268 357.655975,380.455048 366.567841,376.135040 
	C371.044342,373.965088 381.547943,377.955109 383.535309,382.580505 
	C388.215942,393.474182 385.988220,403.860596 377.505646,410.693085 
	C369.374237,417.242706 360.636078,415.223114 356.174347,405.761108 
	C355.890656,405.159454 355.625946,404.548859 355.177490,403.592285 
z"/>
<path fill="#000000" opacity="1.000000" stroke="none" 
	d="
M510.520264,395.785339 
	C505.408264,398.335663 501.490295,396.729736 498.068878,393.262573 
	C496.321167,391.491486 494.700287,389.582458 493.151947,387.632629 
	C492.340088,386.610168 491.168762,385.314850 491.254272,384.228973 
	C491.796539,377.343933 491.753052,370.061554 496.130310,364.338745 
	C500.648773,358.431366 509.213715,358.201813 514.640076,363.368652 
	C519.353943,367.857117 522.391418,373.773376 522.850464,379.983429 
	C523.442871,387.996887 518.675049,393.308624 510.520264,395.785339 
z"/>
<path fill="#000000" opacity="1.000000" stroke="none" 
	d="
M436.491150,379.704254 
	C437.039246,375.477295 439.418640,374.320801 442.885284,374.856354 
	C446.161072,375.362457 449.667145,375.657928 450.135498,380.094147 
	C450.564880,384.161377 449.218140,387.325226 445.207886,388.758301 
	C442.025665,389.895447 438.876099,389.400848 436.628510,386.766693 
	C434.962250,384.813934 435.889465,382.362122 436.491150,379.704254 
z"/>
</svg>